<?xml version="1.0" encoding="utf-8"?>
<svg xmlns="http://www.w3.org/2000/svg" width="57" height="57" class="segno"><path class="qrline" stroke="#000" d="M4 4.5h7m1 0h2m3 0h3m3 0h1m1 0h1m3 0h1m4 0h3m2 0h2m3 0h1m1 0h7m-49 1h1m5 0h1m2 0h3m2 0h1m2 0h1m2 0h3m1 0h2m4 0h1m1 0h2m3 0h4m1 0h1m5 0h1m-49 1h1m1 0h3m1 0h1m1 0h1m1 0h1m1 0h1m3 0h1m1 0h2m1 0h1m1 0h2m2 0h1m3 0h7m1 0h2m1 0h1m1 0h3m1 0h1m-49 1h1m1 0h3m1 0h1m1 0h1m1 0h1m4 0h1m2 0h3m3 0h2m1 0h1m3 0h1m4 0h2m1 0h1m2 0h1m1 0h3m1 0h1m-49 1h1m1 0h3m1 0h1m1 0h2m2 0h5m1 0h1m1 0h1m1 0h6m3 0h2m4 0h1m4 0h1m1 0h3m1 0h1m-49 1h1m5 0h1m2 0h1m2 0h2m8 0h1m3 0h1m3 0h1m1 0h1m2 0h1m2 0h1m3 0h1m5 0h1m-49 1h7m1 0h1m1 0h1m1 0h1m1 0h1m1 0h1m1 0h1m1 0h1m1 0h1m1 0h1m1 0h1m1 0h1m1 0h1m1 0h1m1 0h1m1 0h1m1 0h1m1 0h1m1 0h7m-40 1h1m2 0h5m2 0h4m3 0h1m1 0h2m1 0h1m5 0h2m-39 1h4m2 0h1m1 0h2m3 0h1m1 0h1m1 0h1m2 0h9m2 0h1m3 0h1m1 0h2m2 0h1m2 0h3m1 0h1m-49 1h2m3 0h1m2 0h3m1 0h4m3 0h1m2 0h3m2 0h2m1 0h1m1 0h2m1 0h3m1 0h1m1 0h5m1 0h1m-48 1h2m1 0h1m1 0h9m2 0h1m2 0h3m3 0h1m1 0h1m2 0h1m1 0h1m1 0h1m7 0h2m3 0h1m-47 1h1m1 0h2m3 0h3m2 0h2m1 0h2m3 0h2m1 0h1m2 0h1m1 0h1m1 0h3m2 0h2m2 0h2m2 0h1m1 0h3m-49 1h3m1 0h1m1 0h2m1 0h1m1 0h1m1 0h2m3 0h3m2 0h3m1 0h1m7 0h2m1 0h3m5 0h1m1 0h1m-48 1h1m1 0h2m2 0h1m1 0h3m2 0h1m3 0h1m1 0h1m2 0h1m1 0h2m1 0h1m2 0h1m1 0h1m3 0h3m1 0h1m1 0h2m1 0h1m1 0h1m-49 1h2m2 0h3m2 0h5m1 0h4m7 0h3m1 0h1m4 0h1m2 0h2m1 0h3m1 0h3m-48 1h3m1 0h2m1 0h1m2 0h1m4 0h1m5 0h1m4 0h3m1 0h3m3 0h1m2 0h1m1 0h2m1 0h2m2 0h1m-48 1h2m2 0h2m2 0h2m3 0h4m3 0h2m3 0h1m2 0h2m1 0h1m1 0h1m2 0h1m1 0h2m2 0h4m-44 1h2m2 0h3m1 0h1m2 0h1m1 0h3m5 0h2m1 0h2m2 0h1m1 0h3m4 0h2m5 0h2m-49 1h1m1 0h1m2 0h4m1 0h1m1 0h1m5 0h1m1 0h3m2 0h2m2 0h1m3 0h3m1 0h3m3 0h4m1 0h1m-49 1h2m2 0h1m5 0h1m2 0h2m3 0h4m2 0h3m1 0h1m2 0h1m1 0h1m2 0h3m1 0h4m3 0h2m-49 1h1m2 0h1m2 0h1m1 0h1m3 0h2m2 0h1m3 0h1m1 0h2m1 0h1m1 0h2m1 0h2m5 0h1m5 0h1m3 0h1m-48 1h2m2 0h1m2 0h2m4 0h1m2 0h2m3 0h1m2 0h2m1 0h4m2 0h1m1 0h3m4 0h1m1 0h4m-48 1h1m2 0h6m1 0h3m1 0h1m1 0h1m1 0h1m1 0h1m1 0h5m2 0h2m1 0h3m2 0h1m1 0h7m-46 1h3m1 0h1m3 0h1m1 0h1m1 0h2m1 0h1m1 0h1m1 0h2m1 0h1m3 0h2m4 0h5m2 0h2m3 0h1m1 0h1m-47 1h1m1 0h3m1 0h1m1 0h5m3 0h1m1 0h1m1 0h3m1 0h1m1 0h2m8 0h2m2 0h1m1 0h1m1 0h1m1 0h3m-48 1h2m1 0h1m3 0h1m4 0h1m4 0h1m1 0h1m1 0h1m3 0h1m2 0h1m3 0h1m3 0h4m3 0h3m1 0h1m-49 1h3m1 0h5m1 0h3m1 0h1m1 0h2m1 0h13m4 0h1m1 0h8m-43 1h1m4 0h1m2 0h2m1 0h2m1 0h2m1 0h4m2 0h3m1 0h4m9 0h3m1 0h2m-48 1h3m2 0h6m1 0h1m1 0h1m1 0h1m1 0h1m4 0h1m1 0h2m4 0h3m2 0h1m4 0h1m3 0h2m-47 1h2m1 0h2m1 0h1m1 0h1m3 0h1m2 0h1m2 0h1m3 0h1m1 0h1m1 0h2m3 0h1m1 0h2m1 0h1m4 0h1m2 0h4m-49 1h1m2 0h1m2 0h1m11 0h2m3 0h2m2 0h1m3 0h1m2 0h1m1 0h1m1 0h2m1 0h3m1 0h4m-49 1h1m1 0h1m2 0h1m2 0h1m1 0h2m1 0h2m2 0h1m2 0h1m1 0h4m1 0h2m2 0h1m1 0h2m1 0h1m1 0h2m2 0h1m1 0h1m2 0h1m-47 1h1m1 0h1m2 0h2m2 0h4m1 0h1m5 0h2m1 0h3m1 0h1m1 0h2m3 0h1m1 0h2m2 0h5m2 0h1m-49 1h1m3 0h1m2 0h1m5 0h3m1 0h1m1 0h1m1 0h1m1 0h2m5 0h2m3 0h1m1 0h1m1 0h1m6 0h2m-48 1h1m3 0h1m1 0h1m1 0h1m1 0h2m2 0h2m1 0h1m1 0h3m2 0h4m2 0h2m1 0h3m1 0h1m1 0h3m3 0h3m-46 1h1m2 0h1m2 0h2m1 0h1m4 0h1m2 0h1m3 0h4m2 0h2m1 0h1m1 0h3m1 0h6m2 0h1m-47 1h3m1 0h3m1 0h1m3 0h1m2 0h1m2 0h3m5 0h1m2 0h2m2 0h1m2 0h7m1 0h1m1 0h1m1 0h1m-42 1h2m3 0h6m2 0h1m1 0h1m3 0h2m4 0h2m1 0h1m2 0h1m2 0h1m1 0h2m2 0h2m-48 1h1m3 0h2m2 0h2m1 0h2m6 0h3m1 0h2m4 0h1m4 0h1m2 0h1m4 0h5m-47 1h3m3 0h2m2 0h1m1 0h1m2 0h1m4 0h2m1 0h3m1 0h1m1 0h3m8 0h1m1 0h1m1 0h1m2 0h1m-49 1h3m3 0h1m2 0h1m2 0h1m1 0h4m2 0h1m1 0h5m5 0h1m7 0h8m-40 1h2m4 0h1m1 0h3m2 0h2m3 0h3m4 0h2m1 0h1m3 0h1m3 0h1m1 0h3m-49 1h7m3 0h2m1 0h2m2 0h1m1 0h1m2 0h1m1 0h1m1 0h2m1 0h1m2 0h1m1 0h2m2 0h1m1 0h1m1 0h1m1 0h1m3 0h1m-49 1h1m5 0h1m2 0h3m4 0h3m1 0h1m1 0h1m3 0h4m1 0h1m1 0h1m2 0h5m3 0h1m3 0h1m-49 1h1m1 0h3m1 0h1m4 0h1m2 0h5m1 0h1m1 0h5m1 0h1m1 0h2m2 0h1m4 0h7m-46 1h1m1 0h3m1 0h1m1 0h2m2 0h1m2 0h1m2 0h1m3 0h2m1 0h3m2 0h2m1 0h1m1 0h2m3 0h1m1 0h4m1 0h1m-48 1h1m1 0h3m1 0h1m1 0h3m3 0h2m4 0h1m2 0h1m1 0h1m2 0h1m1 0h2m2 0h2m1 0h1m6 0h2m1 0h2m-49 1h1m5 0h1m1 0h2m3 0h1m2 0h1m2 0h1m3 0h1m3 0h1m4 0h1m1 0h1m1 0h1m2 0h2m5 0h1m-47 1h7m1 0h1m1 0h2m4 0h1m1 0h4m2 0h4m1 0h1m1 0h1m1 0h5m2 0h1m3 0h5"/></svg>
